<svg width="1500" height="900" viewBox="0 0 1500 900" fill="none" xmlns="http://www.w3.org/2000/svg">
  <defs>
    <linearGradient id="bgGradient" x1="0" y1="0" x2="0" y2="900">
      <stop offset="0" stop-color="#FBF6F0"/>
      <stop offset="1" stop-color="#F0E4D6"/>
    </linearGradient>
    <linearGradient id="accentGradient" x1="0" y1="0" x2="1" y2="1">
      <stop offset="0" stop-color="#F7DCC3"/>
      <stop offset="1" stop-color="#D6B58F"/>
    </linearGradient>
    <filter id="glow" x="-30%" y="-30%" width="160%" height="160%">
      <feGaussianBlur stdDeviation="120" result="blur"/>
      <feColorMatrix type="matrix" values="0 0 0 0 0.86 0 0 0 0 0.71 0 0 0 0 0.56 0 0 0 0.35 0" />
    </filter>
    <filter id="softShadow" x="-20%" y="-20%" width="150%" height="150%">
      <feDropShadow dx="0" dy="18" stdDeviation="18" flood-color="#D3C6BA" flood-opacity="0.4"/>
    </filter>
    <style>
      .title { font: 700 36px "PingFang SC", "SF Pro Display", "Helvetica Neue", sans-serif; fill: #7A5A40; }
      .subtitle { font: 400 22px "PingFang SC", "SF Pro Display", "Helvetica Neue", sans-serif; fill: #8C7A6D; }
      .screen-title { font: 700 24px "PingFang SC", "SF Pro Display", "Helvetica Neue", sans-serif; fill: #333333; }
      .label { font: 600 20px "PingFang SC", "SF Pro Display", "Helvetica Neue", sans-serif; fill: #333333; }
      .body { font: 400 16px "PingFang SC", "SF Pro Display", "Helvetica Neue", sans-serif; fill: #888888; }
      .cta { font: 600 18px "PingFang SC", "SF Pro Display", "Helvetica Neue", sans-serif; fill: #FFFFFF; }
    </style>
  </defs>

  <rect width="1500" height="900" fill="url(#bgGradient)"/>
  <circle cx="380" cy="120" r="220" fill="#F2DBC6" opacity="0.32" filter="url(#glow)"/>
  <circle cx="1160" cy="640" r="240" fill="#FFDCC2" opacity="0.28" filter="url(#glow)"/>

  <text x="750" y="70" text-anchor="middle" class="title">CoffeeNote · 个人中心视觉稿</text>
  <text x="750" y="110" text-anchor="middle" class="subtitle">高光玻璃风 · 浅咖啡色系 · 快速展示三大页面</text>

  <!-- Phone frames -->
  <g transform="translate(110 80)">
    <rect width="360" height="780" rx="58" fill="rgba(255,255,255,0.92)" filter="url(#softShadow)"/>
    <text x="180" y="-24" text-anchor="middle" class="screen-title">「我的」主入口</text>
    <!-- Glass card -->
    <rect x="24" y="36" width="312" height="150" rx="32" fill="rgba(255,255,255,0.94)"/>
    <circle cx="86" cy="110" r="40" fill="#F0DAC8"/>
    <text x="86" y="116" text-anchor="middle" font-size="26" font-weight="700" font-family="PingFang SC" fill="#8E6D4F">豆</text>
    <text x="140" y="96" class="label">微信授权登录</text>
    <text x="140" y="130" class="body">解锁个人中心功能</text>
    <rect x="210" y="118" width="110" height="40" rx="20" fill="url(#accentGradient)"/>
    <text x="265" y="145" text-anchor="middle" class="cta">去登录</text>

    <text x="36" y="222" class="label">功能快捷入口</text>
    <!-- Feature cards -->
    <g transform="translate(24 242)">
      <rect width="312" height="118" rx="30" fill="rgba(255,255,255,0.96)"/>
      <text x="28" y="46" class="label">常用冲煮设备</text>
      <text x="28" y="78" class="body">手冲/意式设备一键选</text>
      <text x="280" y="70" text-anchor="middle" font-size="40" font-family="PingFang SC" fill="#8E6D4F">›</text>
    </g>
    <g transform="translate(24 372)">
      <rect width="312" height="118" rx="30" fill="rgba(255,255,255,0.96)"/>
      <text x="28" y="46" class="label">豆子库存管理</text>
      <text x="28" y="78" class="body">剩余克数实时提醒</text>
      <text x="280" y="70" text-anchor="middle" font-size="40" font-family="PingFang SC" fill="#8E6D4F">›</text>
    </g>

    <rect x="24" y="520" width="312" height="86" rx="28" fill="rgba(255,255,255,0.94)"/>
    <text x="40" y="560" class="label">数据概览</text>
    <text x="40" y="590" class="body">默认设备 2 台 · 在库豆子 5 款</text>

    <rect x="120" y="636" width="120" height="6" rx="3" fill="#D9C9BD"/>
  </g>

  <g transform="translate(560 80)">
    <rect width="360" height="780" rx="58" fill="rgba(255,255,255,0.92)" filter="url(#softShadow)"/>
    <text x="180" y="-24" text-anchor="middle" class="screen-title">常用冲煮设备</text>
    <text x="180" y="42" text-anchor="middle" class="label">常用冲煮设备</text>
    <rect x="28" y="60" width="304" height="60" rx="22" fill="rgba(255,255,255,0.95)"/>
    <text x="54" y="96" class="label">＋ 添加设备</text>

    <g transform="translate(28 140)">
      <text x="0" y="0" class="label">手冲设备</text>
      <rect y="18" width="304" height="96" rx="26" fill="rgba(255,255,255,0.96)"/>
      <text x="20" y="52" class="label">Fellow Stagg EKG</text>
      <text x="20" y="78" class="body">品牌 · 型号</text>
      <text x="276" y="70" font-size="34" font-family="PingFang SC" fill="#8E6D4F">›</text>

      <rect y="130" width="304" height="96" rx="26" fill="rgba(255,255,255,0.96)"/>
      <text x="20" y="164" class="label">ORIGAMI Dripper</text>
      <text x="20" y="190" class="body">锥形 01 号 · 默认</text>
      <rect x="190" y="148" width="60" height="24" rx="12" fill="#D6B58F"/>
      <text x="220" y="166" text-anchor="middle" class="cta">默认</text>
      <text x="276" y="182" font-size="34" font-family="PingFang SC" fill="#8E6D4F">›</text>
    </g>

    <g transform="translate(28 380)">
      <text x="0" y="0" class="label">意式设备</text>
      <rect y="18" width="304" height="96" rx="26" fill="rgba(255,255,255,0.96)"/>
      <text x="20" y="52" class="label">La Marzocco Linea Mini</text>
      <text x="20" y="78" class="body">意式咖啡机 · 半自动</text>
      <text x="276" y="70" font-size="34" font-family="PingFang SC" fill="#8E6D4F">›</text>
    </g>

    <g transform="translate(28 520)">
      <text x="0" y="0" class="label">磨豆机</text>
      <rect y="18" width="304" height="96" rx="26" fill="rgba(255,255,255,0.96)"/>
      <text x="20" y="52" class="label">小飞鹰 640S</text>
      <text x="20" y="78" class="body">意式 · 刻度 3.5</text>
      <text x="276" y="70" font-size="34" font-family="PingFang SC" fill="#8E6D4F">›</text>

      <rect y="130" width="304" height="96" rx="26" fill="rgba(255,255,255,0.96)"/>
      <text x="20" y="164" class="label">Comandante C40</text>
      <text x="20" y="190" class="body">手冲 · 28 Clicks</text>
      <text x="276" y="182" font-size="34" font-family="PingFang SC" fill="#8E6D4F">›</text>
    </g>
  </g>

  <g transform="translate(1010 80)">
    <rect width="360" height="780" rx="58" fill="rgba(255,255,255,0.92)" filter="url(#softShadow)"/>
    <text x="180" y="-24" text-anchor="middle" class="screen-title">豆子库存管理</text>
    <text x="180" y="42" text-anchor="middle" class="label">豆子库存管理</text>
    <rect x="24" y="60" width="312" height="58" rx="26" fill="rgba(255,255,255,0.9)"/>
    <rect x="36" y="68" width="140" height="42" rx="21" fill="#D6B58F"/>
    <text x="106" y="95" text-anchor="middle" class="cta">在库</text>
    <text x="248" y="95" text-anchor="middle" class="body">已用完</text>

    <!-- Cards -->
    <g transform="translate(24 140)">
      <rect width="144" height="175" rx="24" fill="rgba(255,255,255,0.96)"/>
      <rect x="12" y="16" width="120" height="56" rx="16" fill="#F5E3D1"/>
      <text x="22" y="98" class="label">花魁 #102</text>
      <text x="22" y="126" class="body">浅烘 · 余 120g</text>
    </g>
    <g transform="translate(192 140)">
      <rect width="144" height="175" rx="24" fill="rgba(255,255,255,0.96)"/>
      <rect x="12" y="16" width="120" height="56" rx="16" fill="#F3DECB"/>
      <text x="22" y="98" class="label">巴拿马 翡翠</text>
      <text x="22" y="126" class="body">中烘 · 余 45g</text>
    </g>
    <g transform="translate(24 330)">
      <rect width="144" height="175" rx="24" fill="rgba(255,255,255,0.96)"/>
      <rect x="12" y="16" width="120" height="56" rx="16" fill="#F5E3D1"/>
      <text x="22" y="98" class="label">耶加雪菲</text>
      <text x="22" y="126" class="body">浅烘 · 余 18g</text>
      <rect x="18" y="136" width="108" height="26" rx="13" fill="#F2994A"/>
      <text x="72" y="155" text-anchor="middle" class="cta">即将用完</text>
    </g>
    <g transform="translate(192 330)">
      <rect width="144" height="175" rx="24" fill="rgba(255,255,255,0.96)"/>
      <rect x="12" y="16" width="120" height="56" rx="16" fill="#F3DECB"/>
      <text x="22" y="98" class="label">宏都拉斯</text>
      <text x="22" y="126" class="body">深烘 · 余 200g</text>
    </g>

    <rect x="24" y="540" width="312" height="110" rx="30" fill="rgba(255,255,255,0.94)"/>
    <text x="40" y="580" class="label">记录消耗 / 标记已用完</text>
    <text x="40" y="610" class="body">长按卡片快速扣减克数，并同步到云端</text>
    <rect x="140" y="670" width="140" height="44" rx="22" fill="url(#accentGradient)"/>
    <text x="210" y="698" text-anchor="middle" class="cta">＋ 新增库存</text>
  </g>
</svg>

